<?xml version="1.0" encoding="iso-8859-1"?>
<!-- Generator: Adobe Illustrator 19.0.0, SVG Export Plug-In . SVG Version: 6.00 Build 0)  -->
<svg xmlns="http://www.w3.org/2000/svg" xmlns:xlink="http://www.w3.org/1999/xlink" version="1.1" id="Capa_1" x="0px" y="0px" viewBox="0 0 480.009 480.009" style="enable-background:new 0 0 480.009 480.009;" xml:space="preserve" width="512px" height="512px">
<g>
	<g>
		<path d="M72.005,72c-13.255,0-24-10.745-24-24c0-4.418-3.582-8-8-8s-8,3.582-8,8c0,13.255-10.745,24-24,24c-4.418,0-8,3.582-8,8    s3.582,8,8,8c13.255,0,24,10.745,24,24c0,4.418,3.582,8,8,8s8-3.582,8-8c0-13.255,10.745-24,24-24c4.418,0,8-3.582,8-8    S76.423,72,72.005,72z M40.005,88c-2.278-3.029-4.971-5.722-8-8c3.029-2.278,5.722-4.971,8-8c2.278,3.029,4.971,5.722,8,8    C44.975,82.278,42.282,84.971,40.005,88z" fill="#FFFFFF"/>
	</g>
</g>
<g>
	<g>
		<rect x="112.005" width="16" height="16" fill="#FFFFFF"/>
	</g>
</g>
<g>
	<g>
		<rect x="112.005" y="32" width="16" height="16" fill="#FFFFFF"/>
	</g>
</g>
<g>
	<g>
		<rect x="96.005" y="16" width="16" height="16" fill="#FFFFFF"/>
	</g>
</g>
<g>
	<g>
		<rect x="128.005" y="16" width="16" height="16" fill="#FFFFFF"/>
	</g>
</g>
<g>
	<g>
		<path d="M472.005,392c-13.255,0-24-10.745-24-24c0-4.418-3.582-8-8-8s-8,3.582-8,8c0,13.255-10.745,24-24,24c-4.418,0-8,3.582-8,8    s3.582,8,8,8c13.255,0,24,10.745,24,24c0,4.418,3.582,8,8,8s8-3.582,8-8c0-13.255,10.745-24,24-24c4.418,0,8-3.582,8-8    S476.423,392,472.005,392z M440.005,408c-2.278-3.029-4.971-5.722-8-8c3.029-2.278,5.722-4.971,8-8c2.278,3.029,4.971,5.722,8,8    C444.975,402.278,442.282,404.971,440.005,408z" fill="#FFFFFF"/>
	</g>
</g>
<g>
	<g>
		<rect x="352.005" y="464" width="16" height="16" fill="#FFFFFF"/>
	</g>
</g>
<g>
	<g>
		<rect x="352.005" y="432" width="16" height="16" fill="#FFFFFF"/>
	</g>
</g>
<g>
	<g>
		<rect x="368.005" y="448" width="16" height="16" fill="#FFFFFF"/>
	</g>
</g>
<g>
	<g>
		<rect x="336.005" y="448" width="16" height="16" fill="#FFFFFF"/>
	</g>
</g>
<g>
	<g>
		<rect x="48.005" y="400" width="16" height="16" fill="#FFFFFF"/>
	</g>
</g>
<g>
	<g>
		<rect x="80.005" y="416" width="16" height="16" fill="#FFFFFF"/>
	</g>
</g>
<g>
	<g>
		<rect x="384.005" y="48" width="16" height="16" fill="#FFFFFF"/>
	</g>
</g>
<g>
	<g>
		<rect x="416.005" y="64" width="16" height="16" fill="#FFFFFF"/>
	</g>
</g>
<g>
	<g>
		<path d="M240.005,128c-22.091,0-40,17.909-40,40s17.909,40,40,40c22.091,0,40-17.909,40-40    C279.978,145.92,262.085,128.026,240.005,128z M240.005,192c-13.255,0-24-10.745-24-24s10.745-24,24-24s24,10.745,24,24    S253.259,192,240.005,192z" fill="#FFFFFF"/>
	</g>
</g>
<g>
	<g>
		<path d="M367.845,342.4l-8-40c-0.395-1.995-1.54-3.761-3.2-4.936l-41.712-29.8l-10.928-164.192c0-0.144-0.088-0.264-0.104-0.4    c-0.088-0.732-0.276-1.448-0.56-2.128c-0.088-0.208-0.152-0.416-0.256-0.616s-0.08-0.248-0.152-0.36l-56-96    c-2.566-3.817-7.74-4.832-11.557-2.267c-0.895,0.602-1.665,1.371-2.267,2.267l-56,96c-0.072,0.112-0.088,0.248-0.152,0.36    c-0.064,0.112-0.168,0.408-0.256,0.616c-0.284,0.68-0.472,1.396-0.56,2.128c0,0.136-0.096,0.256-0.104,0.4l-10.968,164.224    l-41.712,29.8c-1.66,1.175-2.805,2.942-3.2,4.936l-8,40c-0.866,4.333,1.944,8.547,6.277,9.413    c0.517,0.103,1.044,0.155,1.571,0.155h88v24c0,4.418,3.582,8,8,8h4.688l-18.344,18.344c-2.436,2.433-3.041,6.152-1.504,9.232    l32,64c1.971,3.954,6.774,5.562,10.729,3.591c1.555-0.775,2.816-2.036,3.591-3.591l32-64c1.537-3.08,0.932-6.799-1.504-9.232    L259.317,384h4.688c4.418,0,8-3.582,8-8v-24h88c4.418,0.001,8.001-3.58,8.002-7.998    C368.006,343.464,367.952,342.927,367.845,342.4z M160.517,336h-30.752l5.44-27.32l28.464-20.336L160.517,336z M240.005,23.88    L282.077,96h-84.144L240.005,23.88z M262.269,409.6l-22.264,44.512L217.741,409.6l22.264-22.288L262.269,409.6z M256.005,352v16    h-32v-16H256.005z M232.005,336v-64h16v64H232.005z M264.005,336v-72c0-4.418-3.582-8-8-8h-32c-4.418,0-8,3.582-8,8v72h-39.448    l14.936-224h97.024l14.936,224H264.005z M319.493,336l-3.176-47.664l28.488,20.336l5.44,27.328H319.493z" fill="#FFFFFF"/>
	</g>
</g>
<g>
</g>
<g>
</g>
<g>
</g>
<g>
</g>
<g>
</g>
<g>
</g>
<g>
</g>
<g>
</g>
<g>
</g>
<g>
</g>
<g>
</g>
<g>
</g>
<g>
</g>
<g>
</g>
<g>
</g>
</svg>
