<?xml version="1.0" encoding="iso-8859-1"?>
<!-- Generator: Adobe Illustrator 19.0.0, SVG Export Plug-In . SVG Version: 6.00 Build 0)  -->
<svg xmlns="http://www.w3.org/2000/svg" xmlns:xlink="http://www.w3.org/1999/xlink" version="1.1" id="Capa_1" x="0px" y="0px" viewBox="0 0 480 480" style="enable-background:new 0 0 480 480;" xml:space="preserve" width="512px" height="512px">
<g>
	<g>
		<path d="M72,72c-13.255,0-24-10.745-24-24c0-4.418-3.582-8-8-8s-8,3.582-8,8c0,13.255-10.745,24-24,24c-4.418,0-8,3.582-8,8    s3.582,8,8,8c13.255,0,24,10.745,24,24c0,4.418,3.582,8,8,8s8-3.582,8-8c0-13.255,10.745-24,24-24c4.418,0,8-3.582,8-8    S76.418,72,72,72z M40,88c-2.28-3.027-4.973-5.72-8-8c3.027-2.28,5.72-4.973,8-8c2.28,3.027,4.973,5.72,8,8    C44.973,82.28,42.28,84.973,40,88z" fill="#FFFFFF"/>
	</g>
</g>
<g>
	<g>
		<rect x="112" width="16" height="16" fill="#FFFFFF"/>
	</g>
</g>
<g>
	<g>
		<rect x="112" y="32" width="16" height="16" fill="#FFFFFF"/>
	</g>
</g>
<g>
	<g>
		<rect x="96" y="16" width="16" height="16" fill="#FFFFFF"/>
	</g>
</g>
<g>
	<g>
		<rect x="128" y="16" width="16" height="16" fill="#FFFFFF"/>
	</g>
</g>
<g>
	<g>
		<path d="M472,392c-13.255,0-24-10.745-24-24c0-4.418-3.582-8-8-8s-8,3.582-8,8c0,13.255-10.745,24-24,24c-4.418,0-8,3.582-8,8    s3.582,8,8,8c13.255,0,24,10.745,24,24c0,4.418,3.582,8,8,8s8-3.582,8-8c0-13.255,10.745-24,24-24c4.418,0,8-3.582,8-8    S476.418,392,472,392z M440,408c-2.28-3.027-4.973-5.72-8-8c3.027-2.28,5.72-4.973,8-8c2.28,3.027,4.973,5.72,8,8    C444.973,402.28,442.28,404.973,440,408z" fill="#FFFFFF"/>
	</g>
</g>
<g>
	<g>
		<rect x="352" y="464" width="16" height="16" fill="#FFFFFF"/>
	</g>
</g>
<g>
	<g>
		<rect x="352" y="432" width="16" height="16" fill="#FFFFFF"/>
	</g>
</g>
<g>
	<g>
		<rect x="368" y="448" width="16" height="16" fill="#FFFFFF"/>
	</g>
</g>
<g>
	<g>
		<rect x="336" y="448" width="16" height="16" fill="#FFFFFF"/>
	</g>
</g>
<g>
	<g>
		<rect x="48" y="400" width="16" height="16" fill="#FFFFFF"/>
	</g>
</g>
<g>
	<g>
		<rect x="80" y="416" width="16" height="16" fill="#FFFFFF"/>
	</g>
</g>
<g>
	<g>
		<rect x="384" y="48" width="16" height="16" fill="#FFFFFF"/>
	</g>
</g>
<g>
	<g>
		<rect x="416" y="64" width="16" height="16" fill="#FFFFFF"/>
	</g>
</g>
<g>
	<g>
		<path d="M254.752,72.744C252.534,72.26,250.271,72.011,248,72c-0.912,0-1.776,0.192-2.672,0.272C243.544,72.216,241.8,72,240,72    c-92.742,0.101-167.899,75.258-168,168c-0.052,92.784,75.121,168.043,167.905,168.095S407.947,332.974,408,240.19    C408.049,153.087,341.519,80.393,254.752,72.744z M360,160c0,13.255-10.745,24-24,24s-24-10.745-24-24s10.745-24,24-24    S360,146.745,360,160z M232.565,99.81c1.638-6.007,6.621-10.512,12.763-11.538c2.288,0.08,4.568,0.168,6.824,0.344    c8.5,2.318,13.511,11.087,11.194,19.587c-2.318,8.5-11.087,13.511-19.587,11.194C235.259,117.079,230.248,108.309,232.565,99.81z     M320,352c-26.51,0-48-21.49-48-48c0-26.51,21.49-48,48-48c26.51,0,48,21.49,48,48C367.974,330.499,346.499,351.974,320,352z     M307.614,241.206c-34.68,6.831-57.256,40.482-50.426,75.162c5.91,30.008,32.227,51.64,62.811,51.632    c0.608,0,1.192-0.072,1.792-0.088c-52.386,33.777-120.149,31.87-170.552-4.8c5.019,3.167,10.826,4.86,16.76,4.888    c17.884,0.211,32.552-14.116,32.763-32c0.211-17.884-14.116-32.553-32-32.763c-17.884-0.211-32.552,14.116-32.763,32    c-0.112,9.519,3.97,18.605,11.16,24.843c-66.384-51.103-78.771-146.344-27.669-212.727    c24.432-31.738,60.425-52.524,100.125-57.825c-2.34,4.467-3.58,9.429-3.616,14.472c0,17.673,14.327,32,32,32    c17.673,0,32-14.327,32-32c-0.031-3.766-0.732-7.496-2.072-11.016c20.141,5.193,38.994,14.482,55.384,27.288    c-21.991,1.45-38.642,20.452-37.192,42.443c1.45,21.991,20.452,38.642,42.443,37.192c17.308-1.141,31.896-13.333,36.093-30.163    c19.854,37.644,22.805,81.943,8.12,121.888v0C375.945,256.952,342.294,234.376,307.614,241.206z M152,336c0-8.837,7.163-16,16-16    s16,7.163,16,16s-7.163,16-16,16S152,344.837,152,336z" fill="#FFFFFF"/>
	</g>
</g>
<g>
	<g>
		<path d="M176,160c-26.51,0-48,21.49-48,48c0,26.51,21.49,48,48,48c26.51,0,48-21.49,48-48    C223.974,181.501,202.499,160.026,176,160z M176,240c-17.673,0-32-14.327-32-32s14.327-32,32-32s32,14.327,32,32    S193.673,240,176,240z" fill="#FFFFFF"/>
	</g>
</g>
<g>
</g>
<g>
</g>
<g>
</g>
<g>
</g>
<g>
</g>
<g>
</g>
<g>
</g>
<g>
</g>
<g>
</g>
<g>
</g>
<g>
</g>
<g>
</g>
<g>
</g>
<g>
</g>
<g>
</g>
</svg>
